<?xml version="1.0" standalone="no"?>
<!DOCTYPE svg PUBLIC "-//W3C//DTD SVG 20010904//EN"
 "http://www.w3.org/TR/2001/REC-SVG-20010904/DTD/svg10.dtd">
<svg version="1.0" xmlns="http://www.w3.org/2000/svg"
 width="512.000000pt" height="512.000000pt" viewBox="0 0 512.000000 512.000000"
 preserveAspectRatio="xMidYMid meet">
<metadata>
Created by potrace 1.14, written by Peter Selinger 2001-2017
</metadata>
<g transform="translate(0.000000,512.000000) scale(0.100000,-0.100000)"
fill="#000000" stroke="none">
<path d="M0 4425 l0 -695 165 0 165 0 0 530 0 530 2230 0 2230 0 0 -805 0
-805 165 0 165 0 0 970 0 970 -2560 0 -2560 0 0 -695z"/>
<path d="M24 3423 c3 -10 116 -436 251 -948 135 -511 253 -956 262 -987 l16
-58 222 0 c169 0 224 3 227 13 3 6 78 314 169 684 90 370 166 667 170 660 3
-7 82 -315 174 -685 l168 -672 220 2 220 3 264 980 c145 539 266 990 269 1003
l6 22 -217 -2 -218 -3 -162 -683 c-90 -376 -165 -685 -168 -688 -3 -3 -78 289
-166 648 -89 359 -166 670 -172 691 l-10 37 -207 0 -208 0 -174 -684 c-96
-377 -176 -683 -178 -681 -2 2 -74 308 -161 682 l-158 678 -222 3 c-209 2
-222 1 -217 -15z"/>
<path d="M3050 3275 l0 -165 190 0 190 0 0 165 0 165 -190 0 -190 0 0 -165z"/>
<path d="M3632 3278 l3 -163 188 -3 187 -2 0 165 0 165 -190 0 -190 0 2 -162z"/>
<path d="M3413 2920 c-86 -11 -170 -38 -267 -87 -100 -50 -228 -180 -278 -283
-65 -133 -82 -213 -82 -390 -1 -184 13 -249 82 -390 65 -134 161 -230 293
-293 124 -60 222 -81 374 -80 149 1 244 20 355 74 157 75 246 165 321 324 55
118 73 214 72 375 -1 160 -21 250 -85 380 -83 168 -253 300 -448 349 -93 23
-242 32 -337 21z m177 -301 c122 -19 218 -101 260 -221 56 -159 46 -398 -20
-529 -69 -135 -216 -201 -375 -169 -169 33 -260 172 -272 415 -10 194 34 346
123 424 54 47 100 70 163 81 25 4 48 8 51 9 3 0 34 -4 70 -10z"/>
<path d="M4550 2160 l0 -730 200 0 200 0 0 378 c0 407 6 465 53 558 26 52 57
89 95 115 22 16 22 19 20 190 l-3 173 -61 -59 c-33 -33 -75 -85 -92 -115 l-32
-55 0 138 0 137 -190 0 -190 0 0 -730z"/>
<path d="M1 1183 l-1 -1183 2560 0 2560 0 0 570 0 570 -165 0 -165 0 0 -405 0
-405 -2230 0 -2230 0 0 402 0 402 -151 570 c-83 314 -157 591 -164 616 -12 38
-14 -128 -14 -1137z"/>
</g>
</svg>
